<?xml version="1.0" encoding="iso-8859-1"?>
<!-- Generator: Adobe Illustrator 19.0.0, SVG Export Plug-In . SVG Version: 6.00 Build 0)  -->
<svg version="1.1" id="Capa_1" xmlns="http://www.w3.org/2000/svg" xmlns:xlink="http://www.w3.org/1999/xlink" x="0px" y="0px"
	 viewBox="0 0 512 512" style="enable-background:new 0 0 512 512;" xml:space="preserve">
<g>
	<g>
		<path d="M475.57,127.423c-0.001-0.002-0.003-0.004-0.004-0.006l-0.001-0.001c-3.066-5.285-7.487-9.703-12.799-12.782
			L271.323,4.104C266.67,1.419,261.372,0,256.001,0c-5.369,0-10.666,1.419-15.323,4.105l-24.499,14.144
			c-3.662,2.114-4.917,6.797-2.802,10.459c2.115,3.663,6.797,4.914,10.459,2.802l24.497-14.143
			c4.662-2.689,10.684-2.687,15.335-0.002l191.432,110.522c0.693,0.402,1.356,0.848,1.993,1.328l-201.09,114.982l-29.065-16.62
			c-3.671-2.101-8.349-0.827-10.448,2.846c-2.099,3.671-0.825,8.349,2.846,10.447l29.01,16.589v233.623L54.192,378.984
			c-4.411-2.544-7.152-7.286-7.152-12.376v-16.983c0-4.229-3.428-7.656-7.656-7.656c-4.228,0-7.656,3.427-7.656,7.656v16.983
			c0,10.547,5.677,20.372,14.813,25.639l205.633,118.727c1.184,0.684,2.506,1.026,3.828,1.026s2.644-0.342,3.828-1.026
			l75.365-43.514c3.662-2.114,4.917-6.797,2.802-10.459c-2.115-3.663-6.799-4.915-10.459-2.802l-63.881,36.884V257.459
			l201.141-115.012c0.032,0.25,0.052,0.502,0.075,0.753c0.014,0.158,0.036,0.315,0.046,0.475c0.028,0.424,0.042,0.848,0.042,1.273
			v221.661c0,5.09-2.741,9.832-7.156,12.378L354.06,438.887c-3.662,2.114-4.917,6.797-2.802,10.459
			c2.125,3.68,6.814,4.906,10.459,2.802l103.74-59.897c9.139-5.269,14.817-15.094,14.817-25.641V144.949
			C480.274,138.803,478.647,132.743,475.57,127.423z"/>
	</g>
</g>
<g>
	<g>
		<path d="M200.348,212.376L55.171,129.361c1.093-0.939,2.27-1.782,3.526-2.507l138.614-80.031
			c3.662-2.114,4.917-6.797,2.802-10.459c-2.114-3.663-6.797-4.914-10.459-2.802l-138.61,80.029
			c-5.855,3.377-10.738,8.257-14.121,14.104c-3.401,5.867-5.197,12.558-5.197,19.345v171.959c0,4.229,3.428,7.656,7.656,7.656
			c4.228,0,7.656-3.427,7.656-7.656V147.04c0-0.666,0.039-1.328,0.096-1.989c0.015-0.175,0.033-0.348,0.052-0.521
			c0.064-0.59,0.147-1.177,0.255-1.759c0.011-0.058,0.017-0.116,0.029-0.175l145.275,83.071c3.671,2.099,8.347,0.826,10.448-2.846
			C205.293,219.151,204.019,214.474,200.348,212.376z"/>
	</g>
</g>
<g>
</g>
<g>
</g>
<g>
</g>
<g>
</g>
<g>
</g>
<g>
</g>
<g>
</g>
<g>
</g>
<g>
</g>
<g>
</g>
<g>
</g>
<g>
</g>
<g>
</g>
<g>
</g>
<g>
</g>
</svg>
