<svg height="682pt" viewBox="-21 -21 682 682.66669" width="682pt" xmlns="http://www.w3.org/2000/svg"><path d="m436.007812 113.546875h173.320313c10.824219 0 19.652344-8.71875 19.683594-19.429687 0-.054688 0-.109376 0-.136719 0-26.90625-21.472657-48.800781-47.859375-48.800781-1.039063 0-2.082032.039062-3.109375.109374-.542969.023438-.863281-.363281-.992188-.742187-8.988281-26.648437-33.574219-44.546875-61.179687-44.546875-32.953125 0-60.230469 25.273438-64.214844 57.832031-14.941406 3.335938-27.722656 13.890625-33.847656 28.527344-2.527344 6.039063-1.863282 12.914063 1.773437 18.382813 3.671875 5.511718 9.808594 8.804687 16.425781 8.804687zm24.839844-38.070313c5.050782-.167968 9.054688-4.3125 9.054688-9.367187 0-.035156 0-.0625 0-.101563.035156-26.066406 20.644531-47.257812 45.96875-47.257812 19.550781 0 37 12.773438 43.414062 31.789062 2.875 8.515626 11.105469 14.039063 20.003906 13.453126.613282-.039063 1.238282-.054688 1.863282-.054688 16.050781 0 29.109375 13.476562 29.109375 30.046875v.082031c0 .378906-.457031.730469-.933594.730469h-173.320313c-.132812 0-.519531 0-.816406-.441406-.25-.375-.140625-.636719-.085937-.757813 4.445312-10.628906 14.550781-17.738281 25.742187-18.121094zm0 0"/><path d="m638.925781 313.105469c-4.890625-11.65625-14.890625-20.179688-26.671875-23.265625-3.84375-25.949219-25.855468-45.902344-52.34375-45.902344-17.433594 0-33.386718 8.710938-43.140625 22.695312l-40.507812-87.097656c-7.675781-16.507812-30.503907-19.84375-42.257813-5.621094l-74.027344-159.179687c-4.222656-9.074219-12.992187-14.7226562-22.878906-14.734375-.011718 0-.019531 0-.03125 0-9.878906 0-18.640625 5.625-22.878906 14.683594l-7.648438 16.339844c-5.113281 10.925781 11.90625 18.804687 16.984376 7.953124l7.644531-16.351562c1.640625-3.492188 4.664062-3.875 5.898437-3.875h.003906c1.230469 0 4.269532.382812 5.898438 3.890625l38.855469 83.539063c.46875 12.039062-8.496094 23.347656-21.054688 23.347656-13.5625 0-24.589843 11.199218-24.589843 24.964844v17.257812c0 15.792969-23.632813 15.824219-23.632813 0v-34.480469c0-7.363281-3.179687-14.308593-8.71875-19.0625l-12.394531-10.644531 11.621094-24.84375c5.101562-10.902344-11.875-18.859375-16.984376-7.945312l-31.035156 66.328124-15.601562-33.75c-8.945313-19.230468-36.789063-19.273437-45.785156-.050781l-58.433594 124.886719c-10.277344-6.84375-22.484375-10.734375-35.34375-10.734375-32.949219 0-60.230469 25.273437-64.214844 57.835937-14.9375 3.332032-27.726562 13.890626-33.847656 28.523438-5.332032 12.734375 4.496094 27.1875 18.199218 27.1875h67.101563l-24.101563 51.519531h-39.714843c-6.578125 0-10.644531 6.582031-9.074219 12.601563 37 141.824218 162.859375 240.878906 306.066406 240.878906 40.523438 0 79.984375-7.742188 117.304688-23.015625 11.136718-4.5625 4.050781-21.925781-7.105469-17.355469-32.273437 13.207032-66.265625 20.40625-101.167969 21.46875 1.382813-18.410156 5.132813-59.144531 21.636719-70.921875 4.390625-3.128906 9.410156-3.804687 15.792969-2.121093 64.105468 16.953124 88.34375-11.054688 106.046875-31.5 13.671875-15.804688 20.425781-22.523438 37.164062-16.285157 16.195313 6.035157 28.664063 10.496094 37.183594 13.308594-21.191406 25.566406-46.105469 47.238281-74.261719 64.523437-10.273437 6.308594-.417968 22.257813 9.8125 15.980469 34.78125-21.351562 64.902344-48.96875 89.535156-82.082031 24.9375-33.515625 43.035157-71.046875 53.78125-111.5625 1.679688-6.328125-1.753906-13.917969-9.0625-13.917969h-44.417968l-22.886719-49.210937h73.082031c12.199219.003906 20.949219-12.898438 16.203125-24.203125zm-200.59375-69.121094c-5.121093 6.164063-12.5625 9.695313-20.425781 9.695313h-1.445312l31-66.253907c2.398437-5.125 9.414062-5.117187 11.804687.015625l18.636719 40.078125c-15.324219-.25-29.476563 4.316407-39.570313 16.464844zm49.304688 74.578125c.675781-11.316406 9.78125-20.304688 20.875-20.304688 8.429687 0 16.195312-3.238281 19.09375-11.867187 4.769531-14.179687 17.746093-23.703125 32.296875-23.703125 18.820312 0 34.136718 15.757812 34.195312 35.148438v.136718c0 5.054688 4.003906 9.199219 9.054688 9.371094 7.375.25 14.101562 4.589844 17.628906 11.21875zm-196.019531-186.125c1.382812 1.1875 2.179687 2.949219 2.179687 4.832031v34.484375c0 39.972656 61.132813 40.066406 61.132813 0v-17.261718c0-3.421876 2.621093-6.210938 5.839843-6.210938 9.886719 0 18.933594-3.703125 25.902344-9.800781 2.519531-2.207031 4.765625-4.726563 6.683594-7.503907l24.3125 52.28125 5.503906 11.835938-29.097656 62.1875c-2.980469 6.367188.960937 15.15625 8.535156 15.15625 18.910156 0 36.863281-.484375 50.140625-16.46875 8.886719-10.695312 21.410156-9.699219 33.867188-9.699219l15.695312 33.734375c-17.472656 2.808594-31.179688 17.265625-33.199219 35.292969-2.070312 18.414063 12.28125 22.015625 27.097657 22.015625h32.75l22.886718 49.207031h-197.539062l38.035156-81.292969c5.105469-10.90625-11.875-18.867187-16.980469-7.953124l-24.210937 51.742187-85.828125-185.65625 17.855469-38.164063zm-272.421876 183.367188c-.25-.371094-.140624-.628907-.09375-.757813 4.449219-10.625 14.558594-17.734375 25.75-18.113281 5.046876-.171875 9.054688-4.316406 9.054688-9.371094 0-.03125 0-.066406 0-.101562.035156-26.0625 20.640625-47.257813 45.96875-47.257813 10.046875 0 19.539062 3.382813 27.265625 9.246094l-31.253906 66.800781h-75.878907c-.128906 0-.519531 0-.8125-.445312zm197.335938-204.4375c2.585938 0 4.796875 1.507812 5.898438 3.871093l38.566406 83.433594c-10.726563 7.324219-19.367188 15.695313-19.367188 29.800781v30.136719c0 15.789063-23.640625 15.8125-23.640625 0v-23.328125c0-11.320312-6.054687-21.75-15.800781-27.21875l-27.707031-15.546875 36.152343-77.273437c1.640626-3.5 4.667969-3.875 5.898438-3.875zm-50.019531 98.179687 26.503906 14.867187c3.839844 2.152344 6.222656 6.320313 6.222656 10.867188v23.320312c0 39.984376 61.140625 40.070313 61.140625 0v-30.132812c0-5.9375 3.9375-9.675781 8.59375-12.539062l70.75 153.035156 1.039063 2.253906-7.15625 15.300781h-249.898438zm-131.085938 195.722656h79.582031c-9.695312 22.253907-16.167968 42.949219-6.863281 57.496094 23.042969 36.019531 23.589844 71.617187 22.222657 88.164063-43.847657-37.222657-77.457032-87.320313-94.941407-145.660157zm523.957031 92.519531c-4.851562-1.425781-16.296874-5.1875-42.878906-15.089843-29.648437-11.042969-44.648437 6.289062-57.882812 21.582031-16.855469 19.472656-34.289063 39.609375-87.082032 25.648438-11.6875-3.089844-22.578124-1.367188-31.472656 4.984374-21.335937 15.222657-26.972656 51.914063-29.546875 86.15625-59.972656-2.011718-116.34375-22.484374-163.070312-56.671874 1.066406-4.949219 11.25-57.40625-23.511719-111.738282-5.746094-8.984375 5.300781-33.589844 11.597656-47.390625h469.609375c-9.992187 33.324219-25.351562 64.386719-45.761719 92.519531zm0 0"/><path d="m94.660156 133.75c34.121094 0 61.875-27.757812 61.875-61.875s-27.753906-61.875-61.875-61.875c-34.117187 0-61.875 27.757812-61.875 61.875s27.757813 61.875 61.875 61.875zm0-105c23.777344 0 43.125 19.34375 43.125 43.125s-19.347656 43.125-43.125 43.125c-23.78125 0-43.125-19.34375-43.125-43.125s19.34375-43.125 43.125-43.125zm0 0"/></svg>