<svg id="Capa_1" enable-background="new 0 0 512 512" height="512" viewBox="0 0 512 512" width="512" xmlns="http://www.w3.org/2000/svg"><g id="XMLID_1032_"><g id="XMLID_140_"><path id="XMLID_830_" d="m512 273c0-27.974-11.097-54.773-30.661-74.556 2.494-7.771 3.755-15.866 3.755-24.15 0-43.612-35.481-79.094-79.094-79.094-10.101 0-20.02 1.921-29.278 5.61-11.336-46.327-53.198-80.81-102.968-80.81-31.278 0-59.431 13.621-78.85 35.238-17.132-22.024-43.606-35.238-72.03-35.238-50.309 0-91.238 40.929-91.238 91.238 0 9.917 1.566 19.601 4.663 28.874-23.149 23.002-36.299 54.396-36.299 87.181 0 17.159 3.472 33.765 10.317 49.355 1.646 3.749 5.313 5.982 9.161 5.982 1.343 0 2.708-.272 4.016-.846 5.057-2.221 7.356-8.12 5.136-13.177-5.727-13.04-8.63-26.94-8.63-41.314 0-29.395 12.627-57.453 34.644-76.982 3.209-2.846 4.245-7.422 2.576-11.373-3.705-8.769-5.584-18.088-5.584-27.7 0-39.28 31.957-71.238 71.238-71.238 24.136 0 46.473 12.205 59.587 32.193-9.337 15.783-14.707 34.178-14.707 53.807v76.805l-34.88 34.88v-84.654c0-5.523-4.478-10-10-10s-10 4.477-10 10v48.524l-19.294-19.293c-3.906-3.905-10.236-3.905-14.143 0-3.905 3.905-3.905 10.237 0 14.142l33.437 33.436v99.834c-8.826-.849-17.461-2.812-25.771-5.894-5.178-1.921-10.934.72-12.854 5.899-1.921 5.178.721 10.933 5.898 12.853 10.544 3.91 21.514 6.326 32.727 7.228v60.855c-7.278-3.316-15.247-5.061-23.491-5.061-31.271 0-56.712 25.441-56.712 56.712 0 8.352 1.787 16.415 5.311 23.963 1.644 3.52 5.177 5.77 9.062 5.77h414.418c5.522 0 10-4.477 10-10s-4.478-10-10-10h-45.462v-93.476c53.776-5.055 96-50.447 96-105.523zm-106-157.8c32.584 0 59.094 26.509 59.094 59.094 0 7.973-1.558 15.704-4.631 22.977-1.669 3.951-.633 8.526 2.576 11.373 18.405 16.326 28.961 39.782 28.961 64.356 0 44.036-33.276 80.427-76 85.4v-35.355l34.805-34.805c3.905-3.905 3.905-10.237 0-14.142-3.906-3.905-10.236-3.905-14.143 0l-20.662 20.662v-68.39c0-5.523-4.478-10-10-10s-10 4.477-10 10v37.661l-16.246-16.246v-121.785c0-1.545-.041-3.08-.106-4.608 8.143-4.062 17.145-6.192 26.352-6.192zm-26.919 160.197 16.919 16.919v66.09c-17.252-2.031-33.551-9.266-46.638-20.705 16.166-16.468 27.009-38.172 29.719-62.304zm-105.327-235.397c47.421 0 86 38.58 86 86v137.488c0 44.036-33.276 80.427-76 85.4v-35.355l34.806-34.805c3.905-3.905 3.905-10.237 0-14.142s-10.235-3.905-14.143 0l-20.663 20.663v-68.389c0-5.523-4.478-10-10-10s-10 4.477-10 10v37.661l-13.857-13.857c-3.906-3.905-10.236-3.905-14.143 0-3.905 3.905-3.905 10.237 0 14.143l28 28v66.083c-42.724-4.973-76-41.363-76-85.4v-137.49c0-47.42 38.579-86 86-86zm-26.466 365.555c-6.019 0-12 .964-17.686 2.826-11.351-19.088-31.845-30.964-54.622-30.964-15.875 0-30.741 6.031-42.106 16.071v-43.723c20.913-1.658 40.689-8.517 58.09-20.162 17.481 21.846 43.41 36.648 72.79 39.411v38.986c-5.214-1.585-10.741-2.445-16.466-2.445zm-79.534-174.466v32.399c0 17.824 4.429 34.63 12.233 49.388-14.139 9.489-30.161 15.189-47.113 16.801v-63.707zm-115.083 231.178c0-20.243 16.469-36.712 36.712-36.712 9.889 0 19.165 3.879 26.12 10.924 2.574 2.607 6.367 3.598 9.889 2.583 3.521-1.016 6.204-3.876 6.993-7.455 4.368-19.811 22.282-34.189 42.596-34.189 18.002 0 33.925 10.82 40.565 27.566 1.058 2.667 3.21 4.751 5.909 5.723 2.696.972 5.685.738 8.2-.643 5.37-2.949 11.468-4.508 17.633-4.508 20.243 0 36.712 16.469 36.712 36.712 0 3.328-.438 6.584-1.306 9.733h-228.717c-.869-3.15-1.306-6.407-1.306-9.734zm250.487 9.733c.553-3.191.842-6.438.842-9.733 0-17.394-7.878-32.977-20.246-43.388v-49.865c18.509-1.74 35.646-8.259 50.167-18.307 17.068 15.812 38.942 25.604 62.079 27.809v93.484z"/><path id="XMLID_1251_" d="m52.49 316.46c1.859-1.86 2.93-4.44 2.93-7.07s-1.07-5.21-2.93-7.07-4.44-2.93-7.07-2.93c-2.641 0-5.21 1.07-7.07 2.93-1.87 1.86-2.93 4.44-2.93 7.07s1.06 5.21 2.93 7.07c1.86 1.86 4.43 2.93 7.07 2.93 2.63 0 5.21-1.07 7.07-2.93z"/></g></g></svg>