<svg xmlns="http://www.w3.org/2000/svg" height="512pt" version="1.1" viewBox="-56 0 512 512.00002" width="512pt">
<g id="surface1">
<path d="M 87.71875 122.796875 C 117.777344 149.066406 200.746094 123.257812 233.347656 86.570312 C 257.460938 114.953125 286.65625 128.6875 312.183594 130.023438 C 312.222656 127.554688 312.242188 125.144531 312.242188 122.796875 C 312.242188 60.5 261.980469 10 199.980469 10 C 137.980469 10 87.71875 60.5 87.71875 122.796875 Z M 87.71875 122.796875 " style=" stroke:none;fill-rule:evenodd;fill:rgb(26.27451%,37.647059%,60.784314%);fill-opacity:1;" />
<path d="M 233.347656 86.570312 C 200.746094 123.257812 117.777344 149.066406 87.71875 122.796875 C 87.71875 172.230469 95.796875 250.679688 148.816406 280.964844 C 162.613281 288.84375 179.453125 293.464844 199.980469 293.464844 C 220.511719 293.464844 237.351562 288.84375 251.144531 280.964844 C 301.648438 252.117188 311.375 179.570312 312.183594 130.023438 C 286.65625 128.691406 257.460938 114.953125 233.347656 86.570312 Z M 233.347656 86.570312 " style=" stroke:none;fill-rule:evenodd;fill:rgb(95.686275%,74.117647%,65.882353%);fill-opacity:1;" />
<path d="M 199.980469 293.464844 C 179.453125 293.464844 162.613281 288.847656 148.816406 280.964844 L 148.816406 303.269531 C 148.816406 342.421875 171.839844 374.457031 199.980469 374.457031 C 228.121094 374.457031 251.144531 342.421875 251.144531 303.269531 L 251.144531 280.964844 C 237.347656 288.847656 220.511719 293.464844 199.980469 293.464844 Z M 199.980469 293.464844 " style=" stroke:none;fill-rule:evenodd;fill:rgb(95.686275%,74.117647%,65.882353%);fill-opacity:1;" />
<path d="M 251.144531 303.269531 C 251.144531 342.421875 228.121094 374.457031 199.980469 374.457031 C 171.839844 374.457031 148.816406 342.421875 148.816406 303.269531 L 148.816406 297.070312 C 108.3125 297.070312 64.21875 325.308594 50.441406 339.15625 C 42.761719 346.867188 26.488281 386.808594 13.902344 426.140625 C 5.828125 451.378906 4.617188 502 67.207031 502 L 332.753906 502 C 395.34375 502 394.136719 451.378906 386.058594 426.140625 C 373.472656 386.808594 357.199219 346.871094 349.519531 339.15625 C 335.742188 325.308594 291.648438 297.070312 251.144531 297.070312 Z M 251.144531 303.269531 " style=" stroke:none;fill-rule:evenodd;fill:rgb(94.901961%,28.627451%,40%);fill-opacity:1;" />
<path d="M 117.582031 56.160156 C 120.292969 56.160156 123 55.066406 124.980469 52.921875 L 125.074219 52.820312 C 128.8125 48.753906 128.550781 42.429688 124.484375 38.6875 C 120.417969 34.949219 114.09375 35.214844 110.355469 39.277344 L 110.269531 39.371094 C 110.269531 39.371094 110.222656 39.421875 110.222656 39.421875 C 106.480469 43.484375 106.761719 49.785156 110.824219 53.527344 C 112.742188 55.289062 115.164062 56.160156 117.582031 56.160156 Z M 117.582031 56.160156 " style=" stroke:none;fill-rule:nonzero;fill:rgb(0%,0%,0%);fill-opacity:1;" />
<path d="M 395.585938 423.09375 C 387.128906 396.671875 368.101562 343.648438 356.609375 332.101562 C 343.601562 319.03125 303.113281 291.539062 261.144531 287.570312 L 261.144531 286.542969 C 262.578125 285.601562 263.996094 284.640625 265.382812 283.625 C 280.808594 272.316406 293.304688 256.152344 302.523438 235.582031 C 315.609375 206.398438 322.242188 168.449219 322.242188 122.796875 C 322.242188 55.085938 267.394531 0 199.980469 0 C 179.917969 0 160.019531 4.988281 142.429688 14.429688 C 137.566406 17.042969 135.738281 23.105469 138.347656 27.972656 C 140.960938 32.835938 147.023438 34.664062 151.890625 32.054688 C 166.578125 24.167969 183.207031 20 199.980469 20 C 255.007812 20 300.015625 63.917969 302.15625 118.71875 C 280.386719 114.472656 258.570312 100.8125 240.972656 80.097656 C 239.097656 77.890625 236.355469 76.605469 233.460938 76.574219 C 230.597656 76.535156 227.796875 77.765625 225.875 79.929688 C 211.417969 96.195312 185.011719 111.03125 156.960938 118.640625 C 131.96875 125.421875 109.964844 125.023438 97.851562 117.820312 C 98.59375 102.449219 102.75 87.363281 110.003906 73.90625 C 112.621094 69.042969 110.804688 62.976562 105.945312 60.359375 C 101.082031 57.738281 95.015625 59.554688 92.398438 64.417969 C 82.84375 82.144531 77.773438 102.222656 77.726562 122.496094 C 77.726562 122.507812 77.726562 122.519531 77.726562 122.527344 C 77.726562 122.617188 77.722656 122.707031 77.722656 122.796875 C 77.722656 168.449219 84.355469 206.398438 97.4375 235.582031 C 106.660156 256.152344 119.15625 272.316406 134.578125 283.625 C 135.964844 284.640625 137.382812 285.601562 138.816406 286.542969 L 138.816406 287.566406 C 96.847656 291.539062 56.359375 319.027344 43.351562 332.097656 C 31.863281 343.644531 12.832031 396.667969 4.378906 423.09375 C -1.675781 442.011719 -3.113281 469.125 11.015625 488.480469 C 22.40625 504.085938 41.3125 512 67.207031 512 L 232.753906 512 C 238.277344 512 242.753906 507.523438 242.753906 502 C 242.753906 496.476562 238.277344 492 232.753906 492 L 67.207031 492 C 48.058594 492 34.585938 486.847656 27.167969 476.6875 C 17.449219 463.371094 19.078125 442.777344 23.425781 429.1875 C 38.222656 382.957031 52.980469 350.777344 57.527344 346.207031 C 69.507812 334.171875 105.066406 311.613281 138.910156 307.671875 C 140.636719 350.398438 167.367188 384.457031 199.980469 384.457031 C 232.59375 384.457031 259.324219 350.398438 261.050781 307.671875 C 294.894531 311.613281 330.453125 334.167969 342.433594 346.207031 C 346.980469 350.777344 361.742188 382.957031 376.535156 429.1875 C 380.882812 442.777344 382.511719 463.371094 372.792969 476.6875 C 365.375 486.847656 351.90625 492 332.753906 492 L 301.71875 492 C 296.199219 492 291.71875 496.476562 291.71875 502 C 291.71875 507.523438 296.199219 512 301.71875 512 L 332.753906 512 C 358.648438 512 377.554688 504.085938 388.945312 488.480469 C 403.074219 469.125 401.640625 442.011719 395.585938 423.09375 Z M 115.6875 227.402344 C 105.375 204.394531 99.46875 174.941406 98.058594 139.699219 C 105.628906 142.226562 114.355469 143.515625 123.992188 143.515625 C 135.574219 143.515625 148.464844 141.671875 162.199219 137.945312 C 189.390625 130.566406 215.488281 116.847656 233.007812 101.046875 C 253.195312 121.757812 277.519531 135.132812 301.9375 138.980469 C 299.304688 208.34375 278.351562 283.464844 199.980469 283.464844 C 182.617188 283.464844 167.582031 279.972656 154.742188 272.910156 C 154.117188 272.445312 153.4375 272.046875 152.710938 271.738281 C 137.089844 262.511719 124.828125 247.792969 115.6875 227.402344 Z M 241.144531 303.269531 C 241.144531 336.433594 222.292969 364.457031 199.980469 364.457031 C 177.667969 364.457031 158.816406 336.433594 158.816406 303.269531 L 158.816406 296.566406 C 171.273438 301.140625 185.027344 303.464844 199.980469 303.464844 C 214.933594 303.464844 228.6875 301.140625 241.144531 296.566406 Z M 241.144531 303.269531 " style=" stroke:none;fill-rule:nonzero;fill:rgb(0%,0%,0%);fill-opacity:1;" />
<path d="M 158.542969 174.425781 C 162.933594 174.425781 166.792969 177.386719 167.929688 181.628906 C 169.125 186.097656 173.164062 189.042969 177.582031 189.042969 C 178.4375 189.042969 179.308594 188.933594 180.175781 188.699219 C 185.511719 187.273438 188.675781 181.789062 187.246094 176.453125 C 183.773438 163.484375 171.96875 154.425781 158.542969 154.425781 C 145.117188 154.425781 133.316406 163.484375 129.839844 176.453125 C 128.410156 181.789062 131.574219 187.273438 136.910156 188.699219 C 142.242188 190.128906 147.730469 186.964844 149.15625 181.628906 C 150.292969 177.386719 154.152344 174.425781 158.542969 174.425781 Z M 158.542969 174.425781 " style=" stroke:none;fill-rule:nonzero;fill:rgb(0%,0%,0%);fill-opacity:1;" />
<path d="M 219.789062 188.699219 C 225.125 190.128906 230.605469 186.960938 232.035156 181.628906 C 233.171875 177.386719 237.03125 174.425781 241.421875 174.425781 C 245.808594 174.425781 249.667969 177.386719 250.804688 181.628906 C 252.003906 186.097656 256.042969 189.042969 260.457031 189.042969 C 261.3125 189.042969 262.1875 188.933594 263.050781 188.699219 C 268.386719 187.273438 271.554688 181.789062 270.125 176.453125 C 266.648438 163.484375 254.84375 154.425781 241.421875 154.425781 C 227.996094 154.425781 216.191406 163.484375 212.714844 176.453125 C 211.285156 181.789062 214.453125 187.269531 219.789062 188.699219 Z M 219.789062 188.699219 " style=" stroke:none;fill-rule:nonzero;fill:rgb(0%,0%,0%);fill-opacity:1;" />
<path d="M 178.648438 224.800781 C 175.882812 220.015625 169.769531 218.378906 164.988281 221.140625 C 160.203125 223.902344 158.566406 230.015625 161.328125 234.800781 C 169.273438 248.566406 184.085938 257.117188 199.984375 257.117188 C 215.878906 257.117188 230.6875 248.566406 238.636719 234.800781 C 241.398438 230.019531 239.761719 223.902344 234.976562 221.140625 C 230.191406 218.378906 224.078125 220.019531 221.316406 224.800781 C 216.929688 232.398438 208.753906 237.117188 199.984375 237.117188 C 191.207031 237.117188 183.035156 232.398438 178.648438 224.800781 Z M 178.648438 224.800781 " style=" stroke:none;fill-rule:nonzero;fill:rgb(0%,0%,0%);fill-opacity:1;" />
<path d="M 272.988281 492 L 272.71875 492 C 267.199219 492 262.71875 496.476562 262.71875 502 C 262.71875 507.523438 267.199219 512 272.71875 512 L 272.988281 512 C 278.511719 512 282.988281 507.523438 282.988281 502 C 282.988281 496.476562 278.511719 492 272.988281 492 Z M 272.988281 492 " style=" stroke:none;fill-rule:nonzero;fill:rgb(0%,0%,0%);fill-opacity:1;" />
</g>
</svg>