<svg id="Layer_1" enable-background="new 0 0 512.001 512.001" height="512" viewBox="0 0 512.001 512.001" width="512" xmlns="http://www.w3.org/2000/svg"><g><g clip-rule="evenodd" fill-rule="evenodd"><path d="m296.017 218.709h70.231v195.752h-70.231z" fill="#80b6ff"/><g><path d="m321.082 414.456c-51.946 15.475-101.167 43.364-142.064 87.545h322.983v-97.674c-58.261-9.037-121.379-7.608-180.919 10.129z" fill="#d5ea79"/><path d="m179.018 502.002c40.892-44.177 90.109-72.065 142.048-87.54-97.177-55.33-209.838-64.817-311.066-48.187v135.726h169.018z" fill="#cbe558"/><path d="m247.577 446.463c-21.3-40.344-84.7-79.156-113.353-86.415-20.186-1.371-40.345-1.512-60.291-.56 33.444 7.819 98.88 51.333 132.162 116.577 13.237-11.222 27.114-21.054 41.482-29.602z" fill="#e6dfe1"/><path d="m300.411 421.337c24.991 14.164 50.207 49.977 55.404 80.665h98.75c-14.5-45.681-72.622-87.149-104.747-94.813-16.7 3.502-33.228 8.177-49.407 14.148z" fill="#f3f0f1"/></g><path d="m235.376 107.334h41.25v-56.084c0-22.687-18.562-41.25-41.25-41.25z" fill="#cff5fd"/><path d="m366.247 180.459v38.25 185.415c35.304-5.779 71.105-6.552 105.75-3.462v-220.203z" fill="#e6dfe1"/><path d="m235.376 378.031v-144.697h-37.879-67.126-44.19v125.708c15.935-.398 31.981-.086 48.043 1.006 33.935 2.304 67.946 8.083 101.152 17.983z" fill="#a0c8ff"/><path d="m86.181 359.042v-125.708h44.191v-106.251l-88.382 46.125v188.742c10.568-1.123 21.226-1.95 31.945-2.462 4.074-.195 8.156-.343 12.246-.446z" fill="#cff5fd"/><path d="m235.376 233.334v144.697c20.593 6.139 40.877 13.863 60.641 23.326v-182.648-111.375h-19.391-41.25-37.879v126z" fill="#f3f0f1"/></g><g><path d="m503.534 394.445c-7.183-1.114-14.366-2.055-21.537-2.833v-211.153c0-5.523-4.477-10-10-10h-105.75c-5.523 0-10 4.477-10 10v28.25h-50.23v-101.375c0-5.523-4.477-10-10-10h-9.391v-46.084c0-28.259-22.99-51.25-51.25-51.25-5.523 0-10 4.477-10 10v87.334h-27.878c-5.523 0-10 4.477-10 10v116h-47.125v-96.25c0-3.497-1.826-6.739-4.816-8.552-2.991-1.812-6.71-1.931-9.81-.313l-88.382 46.124c-3.303 1.724-5.374 5.14-5.374 8.865v179.832c-7.852.963-15.723 2.072-23.611 3.368-4.833.794-8.38 4.97-8.38 9.867v135.726c0 5.523 4.477 10 10 10h492.001c5.523 0 10-4.477 10-10v-97.674c0-4.931-3.594-9.126-8.467-9.882zm-41.537-203.986v199.421c-11.025-.717-21.996-1.036-32.875-.955v-170.216c0-5.523-4.477-10-10-10s-10 4.477-10 10v170.814c-11.1.59-22.073 1.604-32.875 3.039v-202.103zm-98.152 301.542c-6.397-24.082-22.784-49.988-41.83-67.129 9.112-2.8 18.415-5.24 27.891-7.313 14.685 4.186 34.693 15.691 51.844 29.922 16.913 14.033 29.959 29.483 37.783 44.52zm-154.762-31.282c-23.799-40.974-58.818-72.308-89.532-91.34 4.581.189 9.142.447 13.686.76 24.168 6.848 77.332 38.469 100.674 73.002-8.557 5.466-16.843 11.315-24.828 17.578zm16.293-217.385v121.517c-18.477-4.91-37.5-8.728-57.036-11.385-10.979-1.493-22.065-2.601-33.234-3.369-.204-.018-.408-.035-.61-.041-12.667-.856-25.445-1.248-38.315-1.173v-105.549zm25.73 189.567c-13.547-20.359-35.832-39.839-58.36-54.913 36.473 7.224 71.125 18.727 103.02 34.39-15.577 5.802-30.462 12.664-44.66 20.523zm-5.73-335.567v-75.693c12.341 4.18 21.25 15.874 21.25 29.609v46.084zm-37.879 104h27.878c5.523 0 10-4.477 10-10s-4.477-10-10-10h-27.878v-22h27.878c5.523 0 10-4.477 10-10s-4.477-10-10-10h-27.878v-22h78.519v150.31c0 5.523 4.477 10 10 10s10-4.477 10-10v-38.935h50.23v20h-11.615c-5.523 0-10 4.477-10 10s4.477 10 10 10h11.615v20h-11.615c-5.523 0-10 4.477-10 10s4.477 10 10 10h11.615v20h-11.615c-5.523 0-10 4.477-10 10s4.477 10 10 10h11.615v20h-11.615c-5.523 0-10 4.477-10 10s4.477 10 10 10h11.615v7.031c-8.865 1.644-17.592 3.581-26.15 5.816-2.613.683-5.215 1.393-7.795 2.127-5.354-2.974-10.789-5.817-16.286-8.554v-37.485c0-5.523-4.477-10-10-10s-10 4.477-10 10v28.177c-13.182-5.708-26.745-10.748-40.641-15.151v-137.336c0-5.523-4.477-10-10-10h-27.878v-22zm-155.507-22.065 68.382-35.687v79.752h-34.191c-5.523 0-10 4.477-10 10v116.04c-8.035.345-16.1.867-24.191 1.57zm122.698 312.732h-154.688v-117.169c17.801-2.647 35.511-4.38 53.053-5.243 31.677 8.158 88.93 47.867 120.462 104.174-6.487 5.797-12.771 11.869-18.827 18.238zm124.946-59.378c18.303 12.307 35.882 36.626 43.372 59.378h-139.78c27.826-25.528 60.383-45.444 96.408-59.378zm192.367 59.378h-30.438c-13.466-33.108-46.516-63.048-76.392-80.371 34.066-4.063 69.924-3.693 106.829 1.344v79.027z"/><path d="m416.299 53.368c3.096.83 5.684 2.815 7.287 5.591 1.786 3.094 5.087 5 8.66 5s6.874-1.906 8.66-5c1.603-2.776 4.19-4.762 7.287-5.591 5.335-1.43 8.5-6.913 7.071-12.248s-6.913-8.501-12.248-7.071c-3.946 1.058-7.582 2.819-10.77 5.178-3.188-2.359-6.824-4.121-10.77-5.178-5.335-1.43-10.818 1.736-12.248 7.071s1.736 10.818 7.071 12.248z"/><path d="m351.425 120.119c3.095.829 5.683 2.814 7.286 5.59 1.786 3.094 5.087 5 8.66 5s6.874-1.906 8.66-5c1.603-2.776 4.19-4.761 7.286-5.59 5.335-1.429 8.501-6.912 7.072-12.247-1.43-5.334-6.915-8.499-12.247-7.072-3.946 1.057-7.583 2.819-10.771 5.178-3.188-2.359-6.825-4.121-10.771-5.178-5.336-1.429-10.818 1.737-12.247 7.072s1.737 10.817 7.072 12.247z"/><path d="m66.424 69.118c3.097.83 5.684 2.815 7.286 5.591 1.787 3.094 5.087 5 8.66 5 3.572 0 6.874-1.906 8.66-5 1.603-2.776 4.19-4.762 7.287-5.591 5.334-1.429 8.5-6.913 7.071-12.248-1.43-5.334-6.912-8.501-12.248-7.071-3.946 1.057-7.582 2.819-10.77 5.178-3.188-2.359-6.825-4.121-10.771-5.178-5.336-1.43-10.818 1.736-12.248 7.071-1.428 5.336 1.738 10.819 7.073 12.248z"/><path d="m126.182 283.335h69.192c5.523 0 10-4.477 10-10s-4.477-10-10-10h-69.192c-5.523 0-10 4.477-10 10s4.477 10 10 10z"/><path d="m126.182 323.337h69.192c5.523 0 10-4.477 10-10s-4.477-10-10-10h-69.192c-5.523 0-10 4.477-10 10s4.477 10 10 10z"/><path d="m296.016 322.644c5.523 0 10-4.477 10-10s-4.477-10-10-10h-.007c-5.523 0-9.997 4.477-9.997 10s4.481 10 10.004 10z"/></g></g></svg>