<svg id="Layer_1" enable-background="new 0 0 510 510" height="512" viewBox="0 0 510 510" width="512" xmlns="http://www.w3.org/2000/svg"><g id="XMLID_3783_"><g id="XMLID_3860_"><g><g id="XMLID_1022_"><g id="XMLID_1025_"><path id="XMLID_1030_" d="m75 338.12v-9.864l77.414-45.008 47.165-11.328-.24 104.463-41.352 17.152c-39.435 16.358-82.987-12.608-82.987-55.415z" fill="#f7f4f3"/></g></g></g></g><g id="XMLID_3856_"><g><g id="XMLID_1151_"><g id="XMLID_1153_"><path id="XMLID_1161_" d="m304.75 335.023 5.904 41.357c8.767 3.636 31.885 13.225 41.358 17.155 39.442 16.36 82.988-12.618 82.988-55.415v-9.863l-61-34.59-63.594-21.943z" fill="#e1dddb"/></g></g></g></g><path id="XMLID_3853_" d="m270 398.128-15-53.628-26.447-13.18-33.218 13.18c2.397 44.671 18.009 87.467 44.665 122.395v.105l8.75 10 6.25-10z" fill="#ffd930"/><path id="XMLID_3850_" d="m240 467v42.5h15l10-19.75-10-22.75z" fill="#56696e"/><path id="XMLID_3847_" d="m255 467 7.5 10 7.5-10v-.105c26.605-34.861 42.264-77.639 44.665-122.395l-35.665-13.18-24 13.18z" fill="#ffb242"/><path id="XMLID_3844_" d="m255 467v42.5h15c0-14.959 0-27.561 0-42.5z" fill="#48585c"/><g id="XMLID_3838_"><g><g id="XMLID_922_"><path id="XMLID_924_" d="m465.14 219c-18.167-4.188-142.005-32.728-161.149-37.14l-6.365 51.515 12.781 38.349c.117.054 118.716 54.153 118.834 54.206 37.639 17.559 80.76-9.923 80.76-51.43-.001-26.757-18.689-49.888-44.861-55.5z" fill="#d5cdca"/></g></g></g><g id="XMLID_3826_"><g><g id="XMLID_1145_"><g id="XMLID_1164_"><path d="m194.711 74.114-41.711-55.614 24-18 37.5 50-6.25 15.875z" fill="#56696e"/></g></g></g></g><g id="XMLID_3820_"><g><g id="XMLID_842_"><path id="XMLID_849_" d="m301.86 67.02 13.429 7.096c4.185-5.581 37.801-50.403 41.711-55.616-8.394-6.295-15.606-11.705-24-18-5.365 7.154-32.143 42.857-37.498 49.997z" fill="#48585c"/></g></g></g><path id="XMLID_3819_" d="m44.859 219c-26.159 5.61-44.859 28.73-44.859 55.5 0 41.512 43.127 68.985 80.76 51.43l118.819-54.01 11.785-45.383-5.355-44.677z" fill="#e1dddb"/><path id="XMLID_3816_" d="m208.547 153.471c-.766 10.119-4.613 60.934-5.378 71.029l27.498 6.834 24.333-6.834 8.333-25.5-8.333-27-18.667-13z" fill="#ffd930"/><path id="XMLID_3813_" d="m276 156.334-21 15.666v52.5l25.915 6.834 25.916-6.834c-.765-10.096-4.612-60.91-5.378-71.029z" fill="#ffb242"/><path id="XMLID_3810_" d="m200.898 254.5c-.549 7.253-3.989 52.699-4.542 60l28.812 5.25 29.832-5.25 5.75-27.25-5.75-32.75-25-11.75z" fill="#ffd930"/><path id="XMLID_3807_" d="m309.102 254.5-27.051-6-27.051 6v60l27.051 6.25 31.594-6.25c-.549-7.253-3.99-52.699-4.543-60z" fill="#ffb242"/><path id="XMLID_3804_" d="m203.169 224.5c-.794 10.491-1.477 19.51-2.271 30h54.102l8.333-15-8.333-15c-16.475 0-35.356 0-51.831 0z" fill="#56696e"/><path id="XMLID_3801_" d="m306.831 224.5c-16.475 0-35.356 0-51.831 0v30h54.102c-.794-10.491-1.477-19.51-2.271-30z" fill="#48585c"/><path id="XMLID_3798_" d="m196.355 314.5c-.475 6.261-.881 11.64-1.355 17.9 0 4.072.121 8.112.335 12.1h59.665l11.5-13.18-11.5-16.82c-7.123 0-51.497 0-58.645 0z" fill="#56696e"/><path id="XMLID_3795_" d="m315 332.4c-.474-6.261-.881-11.64-1.355-17.9-7.123 0-51.496 0-58.645 0v30h59.665c.214-3.986.335-8.027.335-12.1z" fill="#48585c"/><g id="XMLID_3784_"><g><g id="XMLID_1195_"><g id="XMLID_1197_"><path d="m187.5 104.5c0 37.278 30.22 67.5 67.5 67.5l10-67.5-10-67.5c-37.278 0-67.5 30.22-67.5 67.5z" fill="#ffb242"/></g><g id="XMLID_1196_"><path d="m322.5 104.5c0-37.278-30.22-67.5-67.5-67.5v135c37.278 0 67.5-30.22 67.5-67.5z" fill="#ff7d39"/></g></g></g></g></g></svg>