<svg id="Layer_1" enable-background="new 0 0 509.315 509.315" height="512" viewBox="0 0 509.315 509.315" width="512" xmlns="http://www.w3.org/2000/svg"><path d="m452.939 202.17-135.016-28.934-2.148-25.692c17.028-23.919 18.398-55.221 4.102-80.347l36.779-49.04-24-18-33.019 44.025c-26.642-20.031-63.289-20.055-89.963 0l-33.019-44.024-24 18 36.779 49.04c-14.289 25.115-12.934 56.418 4.102 80.347l-2.148 25.692-135.018 28.934c-85.25 20.714-69.514 143.468 18.334 141.896 1.579 41.738 44.35 69.132 82.938 53.125l32.324-13.408c10.105 33.238 26.941 63.156 49.688 88.348v37.025h30v-37.025c22.732-25.176 39.576-55.089 49.688-88.348l32.324 13.408c38.631 16.022 81.361-11.436 82.939-53.125 87.816 1.572 103.625-121.146 18.334-141.897zm-165.268-30.69 4.405 52.678h-74.842l4.405-52.678c20.761 10.222 45.192 10.262 66.032 0zm6.914 82.678 5.018 60h-89.895l5.018-60zm2.875 90c-5.322 36.447-20.188 71.086-42.805 99.32-22.617-28.234-37.482-62.873-42.805-99.32zm-42.805-285c24.813 0 45 20.187 45 45-2.471 59.699-87.538 59.681-90 0 0-24.814 20.187-45 45-45zm-225 213.179c0-19.559 13.881-36.732 33.004-40.833l126.115-27.026-5.148 61.562-94.552 44.135c-25.576 12.168-58.935-4.855-59.419-37.838zm116.494 97.145c-19.719 8.182-41.493-6.215-41.493-27.704v-5.77l76.09-35.518c-.11 1.32.402-4.808-1.09 13.041.037.907-.354 18.754 3.341 40.665zm217.013 0-36.848-15.285c2.218-13.15 3.341-26.521 3.341-40.039v-.626l-1.091-13.041 76.091 35.518v5.77c0 21.342-21.641 35.938-41.493 27.703zm74.734-55.324c-6.051 0-11.992-1.34-17.655-3.982l-94.557-44.138-5.147-61.561 126.113 27.025c50.107 13.199 39.629 81.652-8.754 82.656z"/></svg>